<svg width="58" height="51" viewBox="0 0 58 51" fill="none" xmlns="http://www.w3.org/2000/svg">
<path d="M55.5645 43.2345H53.8626C54.0809 42.809 54.2051 42.3276 54.2051 41.8174L54.2039 12.3649C54.2039 10.6472 52.8064 9.2497 51.0887 9.2497H46.502V8.21204C46.502 7.39381 45.8363 6.72806 45.018 6.72806H43.6118V2.46472C43.6118 1.98565 43.3788 1.53377 42.9886 1.25578C42.5984 0.9779 42.0952 0.9054 41.6423 1.06207L38.9661 1.98746C38.5228 2.14085 38.2876 2.62456 38.4409 3.06805C38.5942 3.51143 39.0776 3.74717 39.5215 3.59334L41.9125 2.7665V23.2001L29.8496 27.3716V6.93808L36.0956 4.77815C36.5391 4.62476 36.7742 4.14105 36.6209 3.69756C36.4675 3.25417 35.9842 3.01866 35.5403 3.17227L29 5.43393L16.3577 1.06207C15.9048 0.905286 15.4016 0.9779 15.0114 1.25578C14.6212 1.53377 14.3882 1.98565 14.3882 2.46472V6.72794H12.982C12.1637 6.72794 11.498 7.3937 11.498 8.21193V9.25072H6.91016C5.19236 9.25072 3.79492 10.6483 3.79492 12.366L3.79504 15.3873C3.79504 15.8566 4.17543 16.2369 4.64464 16.2369C5.11386 16.2369 5.49425 15.8565 5.49425 15.3873L5.49414 12.3661C5.49414 11.5852 6.12931 10.95 6.91016 10.95H11.498V12.6493H8.04297C7.81765 12.6493 7.60151 12.7388 7.44224 12.8981C7.28285 13.0574 7.19336 13.2736 7.19336 13.4989L7.19449 40.6857C7.19449 41.155 7.57489 41.5353 8.0441 41.5353L49.957 41.5342C50.1823 41.5342 50.3985 41.4447 50.5579 41.2853C50.7171 41.126 50.8066 40.9099 50.8066 40.6846L50.8055 13.4977C50.8055 13.0284 50.4251 12.6481 49.9559 12.6481H46.502V10.9489H51.0887C51.8696 10.9489 52.5047 11.5841 52.5047 12.3649L52.5059 41.8174C52.5059 42.5982 51.8707 43.2334 51.0898 43.2334L6.91129 43.2345C6.13044 43.2345 5.49527 42.5994 5.49527 41.8185L5.49448 19.0229C5.49448 18.5536 5.11408 18.1733 4.64487 18.1733C4.17566 18.1733 3.79526 18.5537 3.79526 19.0229L3.79605 41.8185C3.79605 42.3283 3.91987 42.8094 4.13794 43.2345H2.43555C1.0926 43.2345 0 44.3271 0 45.6701V48.1623C0 49.5053 1.0926 50.5979 2.43555 50.5979H36.2139C36.6832 50.5979 37.0635 50.2176 37.0635 49.7483C37.0635 49.279 36.6832 48.8987 36.2139 48.8987H2.43555C2.02955 48.8987 1.69922 48.5684 1.69922 48.1624V45.6702C1.69922 45.2642 2.02955 44.9339 2.43555 44.9339H23.2793V45.5308C23.2793 46.7008 24.2312 47.6527 25.4012 47.6527H32.5989C33.7689 47.6527 34.7207 46.7009 34.7207 45.5308V44.9339H55.5645C55.9705 44.9339 56.3008 45.2642 56.3008 45.6702V48.1624C56.3008 48.5684 55.9705 48.8987 55.5645 48.8987H39.9231C39.4538 48.8987 39.0735 49.279 39.0735 49.7483C39.0735 50.2176 39.4538 50.5979 39.9231 50.5979H55.5645C56.9074 50.5979 58 49.5053 58 48.1624V45.6702C58 44.3271 56.9074 43.2345 55.5645 43.2345ZM42.6129 24.7558C43.2103 24.549 43.6118 23.9853 43.6118 23.3532V8.42728H44.8027V27.7148H34.0564L42.6129 24.7558ZM16.0874 2.7665L28.1504 6.93808V27.3716L16.0874 23.2001V2.7665ZM13.1973 8.42728H14.3882V23.3533C14.3882 23.9854 14.7897 24.5491 15.3873 24.756L23.9436 27.7149H13.1973V8.42728ZM49.1063 14.3474L49.1074 39.835L8.8936 39.8361L8.89258 14.3485H11.498V27.93C11.498 28.7482 12.1637 29.414 12.982 29.414H45.018C45.8363 29.414 46.502 28.7482 46.502 27.93V14.3474H49.1063ZM33.0215 45.5307C33.0215 45.7638 32.8319 45.9534 32.5989 45.9534H25.4012C25.1681 45.9534 24.9785 45.7638 24.9785 45.5307V44.9337H33.0215V45.5307Z" fill="#4F4F4F"/>
<path d="M40.1598 31.8372H17.8408C17.3716 31.8372 16.9912 32.2174 16.9912 32.6868C16.9912 33.1561 17.3716 33.5364 17.8408 33.5364H40.1598C40.6292 33.5364 41.0094 33.1561 41.0094 32.6868C41.0094 32.2174 40.629 31.8372 40.1598 31.8372Z" fill="#4F4F4F"/>
<path d="M32.3152 35.4412H17.8408C17.3716 35.4412 16.9912 35.8214 16.9912 36.2908C16.9912 36.7601 17.3716 37.1404 17.8408 37.1404H32.3152C32.7846 37.1404 33.1648 36.7601 33.1648 36.2908C33.1648 35.8214 32.7844 35.4412 32.3152 35.4412Z" fill="#4F4F4F"/>
</svg>
