<svg width="54" height="54" viewBox="0 0 54 54" fill="none" xmlns="http://www.w3.org/2000/svg">
<path d="M31.7185 29.8169C31.4149 29.9227 31.1907 30.1825 31.1304 30.4984C31.0702 30.8143 31.1831 31.1383 31.4265 31.3484C31.67 31.5585 32.0071 31.6228 32.3107 31.517C39.7858 28.9264 44.2975 21.3168 42.9839 13.5154C41.6704 5.71401 34.9156 0.00146484 27.0043 0.00146484C19.0931 0.00146484 12.3383 5.71401 11.0248 13.5154C9.71122 21.3168 14.2229 28.9264 21.6979 31.517C22.1677 31.6803 22.6808 31.4319 22.8441 30.9622C23.0074 30.4924 22.759 29.9793 22.2892 29.816C20.7332 29.273 19.2822 28.4662 17.9998 27.431V26.4509C17.9962 23.6434 19.7249 21.1246 22.3459 20.1185C25.1341 22.0938 28.8656 22.0938 31.6537 20.1185C34.2748 21.1246 36.0035 23.6434 35.9998 26.4509V27.4346C34.7197 28.468 33.2715 29.2738 31.7185 29.8169ZM20.6998 13.4999C20.6998 10.0205 23.5205 7.1999 26.9998 7.1999C30.4792 7.1999 33.2998 10.0205 33.2998 13.4999C33.2998 16.9793 30.4792 19.7999 26.9998 19.7999C23.5221 19.7959 20.7038 16.9777 20.6998 13.4999ZM33.1198 18.7856C35.9495 15.5175 35.7141 10.6033 32.5851 7.62062C29.4561 4.63789 24.5363 4.63789 21.4074 7.62062C18.2784 10.6033 18.043 15.5175 20.8726 18.7856C18.2225 20.1405 16.4647 22.7729 16.2286 25.7399C11.0981 19.9577 11.4483 11.1562 17.0219 5.79989C22.5956 0.443561 31.4041 0.443561 36.9777 5.79989C42.5514 11.1562 42.9016 19.9577 37.771 25.7399C37.5342 22.7711 35.7732 20.1381 33.1198 18.7856Z" fill="white"/>
<path d="M19.2599 53.6498C19.8102 54.0559 20.5441 54.1121 21.1499 53.7947L27.0062 50.7518L32.8616 53.7956C33.4688 54.1112 34.2025 54.0553 34.7548 53.6511C35.3071 53.2469 35.5824 52.5645 35.4652 51.8903L34.3528 45.4715L39.0598 40.9346C39.5543 40.4578 39.7344 39.7412 39.5241 39.0874C39.3137 38.4335 38.7495 37.9564 38.0698 37.8574L31.5359 36.9187L28.6199 31.057C28.3171 30.4432 27.6906 30.0561 27.0062 30.0598C26.3238 30.0574 25.6993 30.4431 25.3961 31.0543L22.4639 36.9187L15.9443 37.8565C15.2642 37.9552 14.6996 38.4325 14.4892 39.0868C14.2788 39.741 14.4592 40.4579 14.9543 40.9346L19.6631 45.4715L18.5498 51.8903C18.4308 52.5643 18.7064 53.2471 19.2599 53.6498ZM16.1999 39.6385L23.1857 38.6332C23.4775 38.5913 23.7304 38.4091 23.8625 38.1454L27.0053 31.8598L30.1346 38.1436C30.2663 38.4082 30.5197 38.5912 30.8123 38.6332L37.8124 39.6385L32.7599 44.5067C32.5449 44.714 32.4468 45.0144 32.498 45.3086L33.6923 52.1999L27.422 48.941C27.1619 48.8058 26.8523 48.8058 26.5922 48.941L20.321 52.1999L21.5153 45.3104C21.5664 45.0162 21.4683 44.7158 21.2534 44.5085L16.1999 39.6385Z" fill="white"/>
<path d="M4.22985 39.7998L3.35055 44.8839C3.26568 45.3579 3.39487 45.8451 3.70344 46.2148C4.012 46.5845 4.46831 46.7987 4.94985 46.8C5.21277 46.7995 5.47173 46.7359 5.70495 46.6146L10.3499 44.1972L14.9921 46.62C15.2773 46.7685 15.62 46.7536 15.8913 46.5809C16.1626 46.4082 16.3211 46.1039 16.3071 45.7826C16.2931 45.4613 16.1089 45.1719 15.8237 45.0234L10.7657 42.3864C10.5051 42.2506 10.1946 42.2506 9.93405 42.3864L5.18475 44.8605L6.08475 39.6405C6.13589 39.3463 6.03777 39.0459 5.82285 38.8386L2.00055 35.1486L7.28985 34.389C7.58193 34.3469 7.83481 34.1643 7.96665 33.9003L10.3499 29.1356L12.7241 33.8994C12.856 34.1642 13.1097 34.3472 13.4027 34.389L19.0538 35.199C19.5458 35.2693 20.0018 34.9274 20.0721 34.4353C20.1424 33.9432 19.8005 33.4873 19.3085 33.417L14.1245 32.6745L11.8052 28.0196C11.5304 27.4659 10.9644 27.1167 10.3463 27.1196H10.3409C9.72941 27.1184 9.17066 27.4656 8.90085 28.0142L6.56985 32.6745L1.40115 33.4161C0.782368 33.4985 0.266039 33.9292 0.0738854 34.5232C-0.118269 35.1171 0.0479451 35.7687 0.501151 36.198L4.22985 39.7998Z" fill="white"/>
<path d="M53.9188 34.5202C53.731 33.9293 53.2193 33.4997 52.6048 33.4168L47.4298 32.6743L45.1042 28.015C44.8353 27.4648 44.2767 27.1157 43.6642 27.115H43.6588C43.0403 27.1117 42.4739 27.4609 42.199 28.015L39.8806 32.6689L34.6957 33.4114C34.3774 33.4569 34.1076 33.6688 33.9878 33.9672C33.868 34.2656 33.9166 34.6053 34.1151 34.8582C34.3137 35.1111 34.6321 35.2389 34.9504 35.1934L40.6024 34.3834C40.8954 34.3417 41.1491 34.1586 41.281 33.8938L43.6498 29.1355L46.0285 33.9001C46.1604 34.1641 46.4133 34.3467 46.7053 34.3888L51.9919 35.1475L48.1696 38.8375C47.9547 39.0448 47.8566 39.3452 47.9077 39.6394L48.8122 44.8594L44.0629 42.3826C43.8024 42.2469 43.4919 42.2469 43.2313 42.3826L38.1733 45.0196C37.8881 45.1682 37.7039 45.4576 37.6899 45.7789C37.6759 46.1001 37.8344 46.4044 38.1057 46.5772C38.377 46.7499 38.7197 46.7648 39.0049 46.6162L43.6498 44.197L48.2938 46.6198C48.8435 46.9054 49.5077 46.8541 50.007 46.4876C50.5064 46.121 50.7542 45.5027 50.6464 44.8927L49.7698 39.7996L53.5012 36.1996C53.9528 35.7673 54.1154 35.1137 53.9188 34.5202Z" fill="white"/>
<path d="M22.0499 42.4249C22.0932 42.4247 22.1365 42.4214 22.1795 42.415L25.5644 41.9281C25.8562 41.8862 26.1091 41.704 26.2412 41.4403L27.8072 38.3092C28.0308 37.8644 27.8515 37.3224 27.4067 37.0987C26.9618 36.875 26.4198 37.0544 26.1962 37.4992L24.8462 40.2091L21.9257 40.6294C21.4579 40.6961 21.1213 41.1132 21.1549 41.5845C21.1885 42.0558 21.5809 42.4209 22.0535 42.4204L22.0499 42.4249Z" fill="white"/>
</svg>
