<svg width="59" height="59" viewBox="0 0 59 59" fill="none" xmlns="http://www.w3.org/2000/svg">
<path d="M58.6187 14.1628L45.2015 4.34532C44.9804 4.18251 44.6982 4.12673 44.4318 4.19318L28.3136 8.28155C27.8202 8.40729 27.5222 8.90915 27.6479 9.40243C27.7006 9.60925 27.8235 9.79142 27.9955 9.91771L32.2636 13.0335L31.3417 17.7071C30.8393 20.3159 35.029 24.4457 40.6752 25.5426C41.6655 25.7338 42.6717 25.8295 43.6803 25.8284C45.2265 25.8381 46.7642 25.5984 48.2341 25.1186C50.4926 24.3674 51.9997 23.1136 52.2625 21.7724L53.1844 17.1125L58.3051 15.8174C58.7985 15.6916 59.0965 15.1898 58.9708 14.6965C58.9181 14.4897 58.7952 14.3075 58.6231 14.1812L58.6187 14.1628ZM50.4651 21.4176C50.359 21.9569 49.359 22.8003 47.6581 23.3673C45.5105 24.0396 43.2286 24.1632 41.0209 23.7268C35.8357 22.7174 32.9411 19.2098 33.1854 18.0576L33.9276 14.2367L41.4128 19.7307C41.5704 19.8469 41.7609 19.9098 41.9567 19.9105C42.0347 19.911 42.1123 19.9001 42.1871 19.8782L51.2026 17.5968L50.4651 21.4176ZM42.1687 17.9884L30.6689 9.5813L44.464 6.08753L55.9499 14.49L42.1687 17.9884Z" fill="#4F4F4F"/>
<path d="M22.5391 26.0037C22.257 26.1665 22.0818 26.4661 22.0781 26.7919V43.2372C22.0818 43.563 22.257 43.8625 22.5391 44.0255C22.6777 44.1112 22.8371 44.1574 23 44.1591C23.149 44.1604 23.296 44.1257 23.4286 44.0577L39.1458 35.8303C39.5964 35.5933 39.7694 35.0358 39.5324 34.5854C39.4456 34.4203 39.3107 34.2856 39.1458 34.1988L23.4425 25.9714C23.1564 25.8237 22.814 25.8359 22.5391 26.0037ZM23.9219 28.3082L36.7306 35.0145L23.9357 41.7161L23.9219 28.3082Z" fill="#4F4F4F"/>
<path d="M56.2315 49.3028H51.4979C51.5799 49.0449 51.6218 48.7759 51.6224 48.5054V27.1789C51.6224 26.6698 51.2096 26.257 50.7005 26.257C50.1914 26.257 49.7786 26.6698 49.7786 27.1789V48.5053C49.771 48.9533 49.4017 49.3103 48.9538 49.3027C48.9537 49.3027 48.9537 49.3027 48.9535 49.3027H8.19963C7.75167 49.3104 7.38226 48.9535 7.37456 48.5055C7.37456 48.5054 7.37456 48.5054 7.37456 48.5053V20.6016C7.38215 20.1536 7.75145 19.7966 8.19941 19.8042H8.19963H28.5766C29.0857 19.8042 29.4985 19.3915 29.4985 18.8823C29.4985 18.3732 29.0857 17.9605 28.5766 17.9605H8.19963C6.73442 17.9554 5.54104 19.1363 5.53092 20.6014V48.5052C5.53147 48.7758 5.57338 49.0447 5.65534 49.3026H0.921875C0.412754 49.3026 0 49.7153 0 50.2244V50.4549C0 52.529 1.63165 54.8336 3.82094 54.8336H53.3323C55.5216 54.8336 57.1533 52.529 57.1533 50.4549V50.2244C57.1533 49.7155 56.7405 49.3028 56.2315 49.3028ZM53.3323 52.9901H3.82094C3.0236 52.9901 2.21239 52.142 1.94045 51.1464H55.2128C54.9409 52.142 54.1297 52.9901 53.3323 52.9901Z" fill="#4F4F4F"/>
</svg>
